<svg width="1600" height="900" viewBox="0 0 1600 900" fill="none" xmlns="http://www.w3.org/2000/svg">
  <defs>
    <radialGradient id="coreGlow" cx="50%" cy="48%" r="60%">
      <stop offset="0%" stop-color="#67e8f9" stop-opacity="0.95"/>
      <stop offset="35%" stop-color="#2563eb" stop-opacity="0.34"/>
      <stop offset="70%" stop-color="#7c3aed" stop-opacity="0.18"/>
      <stop offset="100%" stop-color="#020617" stop-opacity="0"/>
    </radialGradient>
    <linearGradient id="corridor" x1="230" y1="440" x2="1370" y2="440">
      <stop offset="0" stop-color="#22d3ee"/>
      <stop offset="0.45" stop-color="#a78bfa"/>
      <stop offset="1" stop-color="#34d399"/>
    </linearGradient>
    <linearGradient id="danger" x1="0" y1="0" x2="1" y2="1">
      <stop offset="0" stop-color="#fb7185"/>
      <stop offset="1" stop-color="#f97316"/>
    </linearGradient>
    <filter id="glow" x="-60%" y="-60%" width="220%" height="220%">
      <feGaussianBlur stdDeviation="10" result="blur"/>
      <feMerge><feMergeNode in="blur"/><feMergeNode in="SourceGraphic"/></feMerge>
    </filter>
    <filter id="softGlow" x="-30%" y="-30%" width="160%" height="160%">
      <feGaussianBlur stdDeviation="4" result="blur"/>
      <feMerge><feMergeNode in="blur"/><feMergeNode in="SourceGraphic"/></feMerge>
    </filter>
  </defs>

  <rect width="1600" height="900" fill="#020617"/>
  <rect x="42" y="42" width="1516" height="816" rx="38" stroke="#1e293b" stroke-width="2"/>
  <circle cx="800" cy="450" r="430" fill="url(#coreGlow)" opacity="0.65"/>

  <g opacity="0.13" stroke="#94a3b8" stroke-width="1">
    <path d="M120 160H1480M120 260H1480M120 360H1480M120 460H1480M120 560H1480M120 660H1480M120 760H1480"/>
    <path d="M180 110V800M320 110V800M460 110V800M600 110V800M740 110V800M880 110V800M1020 110V800M1160 110V800M1300 110V800M1440 110V800"/>
  </g>

  <g opacity="0.85" filter="url(#softGlow)">
    <circle cx="280" cy="450" r="118" fill="#020617" stroke="#22d3ee" stroke-width="5"/>
    <circle cx="1320" cy="450" r="118" fill="#020617" stroke="#34d399" stroke-width="5"/>
    <circle cx="280" cy="450" r="54" fill="#0f172a" stroke="#e0f2fe" stroke-width="2"/>
    <circle cx="1320" cy="450" r="54" fill="#0f172a" stroke="#dcfce7" stroke-width="2"/>
  </g>

  <path d="M380 450 C540 280, 690 240, 800 450 C910 660, 1060 620, 1220 450" stroke="url(#corridor)" stroke-width="18" stroke-linecap="round" opacity="0.92" filter="url(#glow)"/>
  <path d="M380 450 C540 620, 690 660, 800 450 C910 240, 1060 280, 1220 450" stroke="url(#corridor)" stroke-width="8" stroke-linecap="round" opacity="0.58"/>
  <path d="M410 450 C560 360, 680 340, 800 450 C920 560, 1040 540, 1190 450" stroke="#e0f2fe" stroke-width="2" stroke-linecap="round" opacity="0.55"/>

  <g stroke="#f59e0b" stroke-width="4" opacity="0.9" stroke-linecap="round">
    <path d="M760 228 L840 228"/>
    <path d="M782 206 L818 250"/>
    <path d="M818 206 L782 250"/>
  </g>
  <text x="714" y="190" font-family="Inter, Arial, sans-serif" font-size="18" fill="#fbbf24" font-weight="700">STANDING DECAY WATCH</text>

  <g stroke="url(#danger)" stroke-width="5" opacity="0.9" stroke-linecap="round">
    <path d="M720 685 C760 720, 840 720, 880 685"/>
    <path d="M748 690 L724 730"/>
    <path d="M852 690 L876 730"/>
  </g>
  <text x="684" y="770" font-family="Inter, Arial, sans-serif" font-size="18" fill="#fb7185" font-weight="700">INVALID TRANSFER RELATION</text>

  <g font-family="Inter, Arial, sans-serif">
    <text x="92" y="96" font-size="32" fill="#e2e8f0" font-weight="800">ELYRIA CORRIDOR STANDING PHYSICS</text>
    <text x="92" y="132" font-size="20" fill="#93c5fd" font-weight="500">Protected Public Proof Surface · Elyria Systems — VA · Samantha Revita + Terry Snyder</text>
    <text x="206" y="450" font-size="22" fill="#e0f2fe" font-weight="800">MOUTH A</text>
    <text x="1246" y="450" font-size="22" fill="#dcfce7" font-weight="800">MOUTH B</text>
    <text x="675" y="438" font-size="28" fill="#e2e8f0" font-weight="800">TRANSFER RELATION</text>
    <text x="628" y="476" font-size="20" fill="#c4b5fd" font-weight="600">standing must hold across formation · transfer · closure</text>
  </g>

  <g transform="translate(130,650)">
    <rect width="1340" height="86" rx="22" fill="#020617" stroke="#334155" stroke-width="2" opacity="0.90"/>
    <text x="34" y="53" font-family="Times New Roman, serif" font-size="30" fill="#e2e8f0">CorridorStanding<tspan baseline-shift="sub" font-size="20">AB</tspan> = Mouth<tspan baseline-shift="sub" font-size="20">A</tspan> ∧ Mouth<tspan baseline-shift="sub" font-size="20">B</tspan> ∧ TransferRelation<tspan baseline-shift="sub" font-size="20">AB</tspan> ∧ ClosureStanding</text>
  </g>

  <text x="130" y="818" font-family="Inter, Arial, sans-serif" font-size="15" fill="#64748b">Public-safe visual surface only. Protected substrate, private law bundles, and extreme-field internals are intentionally excluded.</text>
</svg>
