<svg width="1800" height="1000" viewBox="0 0 1800 1000" xmlns="http://www.w3.org/2000/svg">
  <defs>
    <radialGradient id="bg" cx="54%" cy="50%" r="72%">
      <stop offset="0" stop-color="#14365a"/>
      <stop offset="0.36" stop-color="#07182e"/>
      <stop offset="1" stop-color="#02040a"/>
    </radialGradient>
    <linearGradient id="gold" x1="0" y1="0" x2="1" y2="1">
      <stop offset="0" stop-color="#fff7d6"/>
      <stop offset="0.5" stop-color="#d8b76a"/>
      <stop offset="1" stop-color="#6f4708"/>
    </linearGradient>
    <linearGradient id="blue" x1="0" y1="0" x2="1" y2="0">
      <stop offset="0" stop-color="#7dd3fc"/>
      <stop offset="0.55" stop-color="#38bdf8"/>
      <stop offset="1" stop-color="#1d4ed8"/>
    </linearGradient>
    <filter id="glow" x="-40%" y="-40%" width="180%" height="180%">
      <feGaussianBlur stdDeviation="7" result="blur"/>
      <feMerge><feMergeNode in="blur"/><feMergeNode in="SourceGraphic"/></feMerge>
    </filter>
    <pattern id="grid" width="72" height="72" patternUnits="userSpaceOnUse">
      <path d="M72 0H0V72" stroke="#1e3a5f" stroke-width="1" opacity="0.32"/>
    </pattern>
  </defs>

  <rect width="1800" height="1000" fill="url(#bg)"/>
  <rect width="1800" height="1000" fill="url(#grid)" opacity="0.52"/>
  <rect x="50" y="50" width="1700" height="900" rx="42" fill="none" stroke="#26364f" stroke-width="2"/>

  <text x="90" y="132" font-family="Georgia,serif" font-size="74" fill="#f8fafc">Elyria</text>
  <text x="90" y="208" font-family="Georgia,serif" font-size="56" fill="#d8b76a">Corridor Standing Physics</text>
  <path d="M92 236H690" stroke="url(#gold)" stroke-width="3"/>
  <text x="92" y="288" font-family="Inter,Arial" font-size="18" fill="#93c5fd" letter-spacing="7">DIMENSIONAL ORDER · ADMISSIBLE PASSAGE · REFUSAL BEFORE BIND</text>

  <g transform="translate(900 560)">
    <path d="M-770 260 C-420 120 -205 -215 760 -340" stroke="#22c55e" stroke-width="14" fill="none" filter="url(#glow)"/>
    <path d="M-780 145 C-420 85 -150 -110 760 -185" stroke="#38bdf8" stroke-width="10" fill="none" filter="url(#glow)"/>
    <path d="M-775 20 C-425 5 -170 -10 760 -8" stroke="url(#gold)" stroke-width="10" fill="none" filter="url(#glow)"/>
    <path d="M-775 -125 C-400 -65 -180 130 760 265" stroke="#ef4444" stroke-width="9" fill="none" stroke-dasharray="22 18" opacity="0.72" filter="url(#glow)"/>

    <path d="M-22 -300 C24 -245 55 -125 50 0 C45 125 24 245 -22 300 C-65 236 -82 118 -76 0 C-82 -118 -65 -236 -22 -300Z" fill="#07111f" stroke="url(#gold)" stroke-width="5" opacity="0.95"/>
    <path d="M-5 -260 C28 -190 41 -95 38 0 C41 95 28 190 -5 260" fill="none" stroke="#38bdf8" stroke-width="2" opacity="0.52"/>
    <text x="-18" y="0" text-anchor="middle" dominant-baseline="middle" font-family="Inter,Arial" font-size="17" fill="#f8fafc" font-weight="900" transform="rotate(-90 -18 0)">STANDING BOUNDARY</text>

    <g font-family="Inter,Arial" font-size="20" font-weight="900" letter-spacing="2">
      <text x="700" y="-360" fill="#22c55e">STABLE LANE</text>
      <text x="700" y="-205" fill="#38bdf8">STABLE LANE</text>
      <text x="700" y="12" fill="#d8b76a">NARROWED LANE</text>
      <text x="700" y="288" fill="#fca5a5">REFUSED LANE</text>
    </g>

    <g font-family="Inter,Arial" font-size="15" fill="#cbd5e1" opacity="0.88">
      <text x="702" y="-332">admissible transfer relation</text>
      <text x="702" y="-177">admissible but monitored</text>
      <text x="702" y="40">constrained passage</text>
      <text x="702" y="316">dissolves before consequence</text>
    </g>

    <g fill="#f8fafc" filter="url(#glow)">
      <circle cx="-520" cy="165" r="7"/><circle cx="-300" cy="45" r="7"/><circle cx="-110" cy="-110" r="7"/>
      <circle cx="120" cy="-27" r="7"/><circle cx="350" cy="-10" r="7"/><circle cx="610" cy="-8" r="7"/>
    </g>

    <g stroke="#d8b76a" stroke-width="1.5" opacity="0.35">
      <ellipse cx="0" cy="0" rx="360" ry="210" fill="none"/>
      <ellipse cx="0" cy="0" rx="560" ry="315" fill="none"/>
      <path d="M-700 -330C-360 -420 360 -420 700 -330" fill="none"/>
      <path d="M-700 330C-360 420 360 420 700 330" fill="none"/>
    </g>
  </g>

  <g transform="translate(105 830)" font-family="Inter,Arial">
    <circle cx="0" cy="0" r="18" fill="none" stroke="#22c55e" stroke-width="3"/>
    <text x="34" y="7" font-size="18" fill="#22c55e" font-weight="900">stable</text>
    <circle cx="140" cy="0" r="18" fill="none" stroke="#d8b76a" stroke-width="3"/>
    <text x="174" y="7" font-size="18" fill="#d8b76a" font-weight="900">narrowed</text>
    <circle cx="320" cy="0" r="18" fill="none" stroke="#ef4444" stroke-width="3"/>
    <text x="354" y="7" font-size="18" fill="#fca5a5" font-weight="900">refused before bind</text>
  </g>

  <text x="900" y="925" text-anchor="middle" font-family="Georgia,serif" font-size="31" fill="#fff3c4">Endpoint standing is not corridor standing.</text>
</svg>