<svg width="1800" height="1000" viewBox="0 0 1800 1000" xmlns="http://www.w3.org/2000/svg"><defs><linearGradient id="bg" x1="0" y1="0" x2="1" y2="1"><stop offset="0" stop-color="#020617"/><stop offset="1" stop-color="#071526"/></linearGradient><linearGradient id="lane" x1="0" y1="0" x2="1" y2="0"><stop offset="0" stop-color="#38bdf8"/><stop offset="1" stop-color="#d8b76a"/></linearGradient><filter id="glow"><feGaussianBlur stdDeviation="5" result="b"/><feMerge><feMergeNode in="b"/><feMergeNode in="SourceGraphic"/></feMerge></filter></defs><rect width="1800" height="1000" fill="url(#bg)"/><text x="92" y="130" font-family="Georgia,serif" font-size="64" fill="#f8fafc">Elyria</text><text x="92" y="205" font-family="Georgia,serif" font-size="54" fill="#d8b76a">Corridor Standing Physics</text><text x="96" y="260" font-family="Inter,Arial" font-size="18" fill="#93c5fd" letter-spacing="8">STABLE · DEGRADED · QUARANTINED · REFUSED</text><g transform="translate(0 0)" filter="url(#glow)"><path d="M120 790 C480 680 780 360 1680 230" stroke="#22c55e" stroke-width="10" fill="none"/><path d="M110 680 C470 610 810 420 1670 360" stroke="#38bdf8" stroke-width="7" fill="none"/><path d="M100 560 C520 545 760 510 1660 510" stroke="#d8b76a" stroke-width="7" fill="none"/><path d="M100 430 C480 485 720 660 1660 725" stroke="#ef4444" stroke-width="7" stroke-dasharray="20 18" fill="none" opacity=".65"/></g><g font-family="Inter,Arial" font-size="22" font-weight="800"><text x="1320" y="220" fill="#22c55e">STABLE LANE</text><text x="1320" y="348" fill="#38bdf8">STABLE LANE</text><text x="1320" y="498" fill="#d8b76a">NARROWED LANE</text><text x="1320" y="710" fill="#ef4444">REFUSED BEFORE BINDING</text></g><rect x="760" y="332" width="110" height="390" rx="55" fill="none" stroke="#d8b76a" stroke-width="4" opacity=".8"/><text x="815" y="535" text-anchor="middle" font-family="Inter,Arial" font-size="18" fill="#f8fafc" writing-mode="tb">STANDING BOUNDARY</text><text x="900" y="910" text-anchor="middle" font-family="Georgia,serif" font-size="30" fill="#fff3c4">Standing preserves the admissible. It dissolves the refused.</text></svg>